<?xml version="1.0" encoding="UTF-8"?>
<svg width="74px" height="73px" viewBox="0 0 74 73" version="1.1" xmlns="http://www.w3.org/2000/svg" xmlns:xlink="http://www.w3.org/1999/xlink">
    <title>Combined Shape</title>
    <g id="Page-1" stroke="none" stroke-width="1" fill="none" fill-rule="evenodd">
        <g id="ChatOps_Welcome_1_S1" transform="translate(-352.000000, -464.000000)" fill="#000000" fill-rule="nonzero">
            <g id="System-Integration" transform="translate(352.000000, 464.000000)">
                <g id="Group">
                    <g id="Integrates">
                        <path d="M70.7727273,45.1 C72.0584416,45.1 73.1688312,46.1519481 73.1688312,47.4961039 L73.1688312,65.0285714 C73.1688312,66.3142857 72.1168831,67.4246753 70.7727273,67.4246753 L60.253,67.424 L60.253,69.762 L64.1688312,69.7623377 C64.8116883,69.7623377 65.3376623,70.2883117 65.3376623,70.9311688 C65.3376623,71.574026 64.7532468,72.1 64.1103896,72.1 L54.0584416,72.1 C53.4155844,72.1 52.8896104,71.574026 52.8896104,70.9311688 C52.8896104,70.2883117 53.4155844,69.7623377 54.0584416,69.7623377 L57.915,69.762 L57.915,67.424 L47.3961039,67.4246753 C46.1103896,67.4246753 45,66.3727273 45,65.0285714 L45,47.4961039 C45,46.2103896 46.0519481,45.1 47.3961039,45.1 L70.7727273,45.1 Z M25.7727273,45.1 C27.0584416,45.1 28.1688312,46.1519481 28.1688312,47.4961039 L28.1688312,65.0285714 C28.1688312,66.3142857 27.0584416,67.4246753 25.7727273,67.4246753 L15.253,67.424 L15.253,69.762 L19.1688312,69.7623377 C19.8116883,69.7623377 20.3376623,70.2883117 20.3376623,70.9311688 C20.3376623,71.574026 19.7532468,72.1 19.1103896,72.1 L9.05844156,72.1 C8.41558442,72.1 7.88961039,71.574026 7.88961039,70.9311688 C7.88961039,70.2883117 8.41558442,69.7623377 9.05844156,69.7623377 L12.915,69.762 L12.915,67.424 L2.3961039,67.4246753 C1.11038961,67.4246753 3.67705866e-13,66.3727273 3.67705866e-13,65.0285714 L3.67705866e-13,47.4961039 C3.67705866e-13,46.2103896 1.05194805,45.1 2.3961039,45.1 L25.7727273,45.1 Z M70.831,62.69 L47.345,62.69 L47.3376623,65.0285714 L70.7727273,65.087013 C70.7727273,65.087013 70.8311688,65.087013 70.8311688,65.0285714 L70.831,62.69 Z M25.831,62.69 L2.345,62.69 L2.33766234,65.0285714 L25.7727273,65.087013 C25.7727273,65.087013 25.8311688,65.087013 25.8311688,65.0285714 L25.831,62.69 Z M2.3961039,47.4376623 L2.353,60.353 L25.831,60.353 L25.8311688,47.4961039 L2.3961039,47.4376623 Z M47.3961039,47.4376623 L47.353,60.353 L70.831,60.353 L70.8311688,47.4961039 L47.3961039,47.4376623 Z M36.5844156,28.9701299 C37.2272727,28.9701299 37.7532468,29.4961039 37.7532468,30.138961 L37.753,34.989 L59.0844156,34.9896104 C59.7272727,34.9896104 60.2532468,35.5155844 60.2532468,36.1584416 L60.2532468,42.2948052 C60.2532468,42.9376623 59.7272727,43.4636364 59.0844156,43.4636364 C58.4415584,43.4636364 57.9155844,42.9376623 57.9155844,42.2948052 L57.9155844,37.3272727 L15.2532468,37.3272727 L15.2532468,42.2948052 C15.2532468,42.9376623 14.7272727,43.4636364 14.0844156,43.4636364 C13.4415584,43.4636364 12.9155844,42.9376623 12.9155844,42.2948052 L12.9155844,36.1584416 C12.9155844,35.5155844 13.4415584,34.9896104 14.0844156,34.9896104 L35.415,34.989 L35.4155844,30.138961 C35.4155844,29.4961039 35.9415584,28.9701299 36.5844156,28.9701299 Z M48.6233766,0.1 C49.9090909,0.1 51.0194805,1.15194805 51.0194805,2.4961039 L51.0194805,20.0285714 C51.0194805,21.3727273 49.9675325,22.4246753 48.6233766,22.4246753 L38.103,22.424 L38.103,24.762 L42.0194805,24.7623377 C42.6623377,24.7623377 43.1883117,25.2883117 43.1883117,25.9311688 C43.1883117,26.574026 42.6623377,27.1 42.0194805,27.1 L31.9090909,27.1 C31.2662338,27.1 30.7402597,26.574026 30.7402597,25.9311688 C30.7402597,25.2883117 31.2662338,24.7623377 31.9090909,24.7623377 L35.766,24.762 L35.766,22.424 L25.2467532,22.4246753 C23.961039,22.4246753 22.8506494,21.3727273 22.8506494,20.0285714 L22.8506494,2.4961039 C22.8506494,1.21038961 23.9025974,0.1 25.2467532,0.1 L48.6233766,0.1 Z M48.681,17.69 L25.196,17.69 L25.1883117,20.0285714 L48.6233766,20.087013 C48.6233766,20.087013 48.6818182,20.087013 48.6818182,20.0285714 L48.681,17.69 Z M25.2467532,2.43766234 L25.203,15.353 L48.681,15.353 L48.6818182,2.4961039 L25.2467532,2.43766234 Z" id="Combined-Shape"></path>
                    </g>
                </g>
            </g>
        </g>
    </g>
</svg>