<?xml version="1.0" encoding="UTF-8"?>
<svg width="73px" height="72px" viewBox="0 0 73 72" version="1.1" xmlns="http://www.w3.org/2000/svg" xmlns:xlink="http://www.w3.org/1999/xlink">
    <title>Combined Shape</title>
    <g id="Page-1" stroke="none" stroke-width="1" fill="none" fill-rule="evenodd">
        <g id="ChatOps_Welcome_1_S1" transform="translate(-353.000000, -694.000000)" fill="#000000" fill-rule="nonzero">
            <g id="recommended-courses" transform="translate(353.000000, 694.000000)">
                <path d="M41.2607419,0.265302138 C41.545484,0.0391645286 41.917879,-0.044624331 42.2720386,0.0377603786 C42.6264544,0.118232295 42.9255511,0.354500935 43.0858917,0.680656143 L43.0858917,0.680656143 L45.9753108,6.56423592 L52.3693547,5.15925585 C52.7242227,5.08112391 53.0953956,5.16744885 53.3793658,5.39415757 C53.663336,5.62086629 53.8297215,5.96370323 53.8321231,6.32706276 L53.8321231,6.32706276 L53.8766683,12.8764129 L60.257469,14.3740951 C60.6109882,14.4574173 60.9079972,14.6958838 61.0657371,15.0230482 C61.2234771,15.3502125 61.2250869,15.7311036 61.0701181,16.0595896 L61.0701181,16.0595896 L58.2685855,21.9804911 L63.3587789,26.103933 C63.6409303,26.3325231 63.8048322,26.6762532 63.8048322,27.0393825 C63.8048322,27.4025118 63.6409303,27.7462418 63.3587789,27.9748319 L63.3587789,27.9748319 L58.2685855,32.0982739 L61.072526,38.0227871 C61.22748,38.3514411 61.2257145,38.7324978 61.0677217,39.0597019 C60.9097288,39.386906 60.6124108,39.6252531 60.2586729,39.7082816 L60.2586729,39.7082816 L54.8301766,40.9832378 L71.8813615,58.0356266 C72.2530287,58.4071754 72.3407489,58.9768697 72.0980679,59.4430145 C71.8587651,59.9125938 71.3387449,60.1684379 70.8207039,60.0714632 L70.8207039,60.0714632 L58.0434515,57.8177162 L60.2971985,70.5961725 C60.3872325,71.1129808 60.13226,71.628595 59.6669096,71.8707643 C59.2015591,72.1129337 58.6329691,72.0259033 58.2613619,71.6556262 L58.2613619,71.6556262 L37.2877905,50.6832587 L36.1163719,49.7610524 L34.9461571,50.6820548 L13.9713818,71.6556262 C13.5997746,72.0259033 13.0311846,72.1129337 12.5658342,71.8707643 C12.1004837,71.628595 11.8455112,71.1129808 11.9355452,70.5961725 L11.9355452,70.5961725 L14.1892922,57.8177162 L1.41203984,60.0714632 C0.895008193,60.1621911 0.378791278,59.9074647 0.13624861,59.4419259 C-0.106294057,58.9763872 -0.0192456401,58.4073634 0.351382217,58.0356266 L0.351382217,58.0356266 L17.4061788,40.9820339 L11.9752747,39.7058737 C11.6217555,39.6225516 11.3247465,39.3840851 11.1670066,39.0569207 C11.0092666,38.7297564 11.0076568,38.3488652 11.1626256,38.0203792 L11.1626256,38.0203792 L13.9641583,32.0982739 L8.87155698,27.9748319 C8.58940552,27.7462418 8.42550361,27.4025118 8.42550361,27.0393825 C8.42550361,26.6762532 8.58940552,26.3325231 8.87155698,26.103933 L8.87155698,26.103933 L13.9617504,21.9780832 L11.1602177,16.0547739 C11.0052637,15.7261199 11.0070292,15.3450632 11.1650221,15.0178591 C11.3230149,14.690655 11.6203329,14.4523079 11.9740708,14.3692794 L11.9740708,14.3692794 L18.3548715,12.8728011 L18.4006206,6.32345099 C18.4030222,5.96009146 18.5694077,5.61725451 18.8533779,5.39054579 C19.1373481,5.16383708 19.508521,5.07751213 19.8633891,5.15564407 L19.8633891,5.15564407 L26.2538211,6.56303199 L29.1432403,0.680656143 C29.3034378,0.354489175 29.6023858,0.118129196 29.9567108,0.0374945516 C30.3110358,-0.0431400927 30.6828249,0.0405785203 30.96839,0.265302138 L30.96839,0.265302138 L36.1163719,4.31891644 Z M53.865833,43.4223891 L53.8357349,47.7565179 C53.8333333,48.1198774 53.6669478,48.4627144 53.3829776,48.6894231 C53.0990074,48.9161318 52.7278345,49.0024567 52.3729664,48.9243248 L52.3729664,48.9243248 L45.9741069,47.515733 L43.1942449,53.1850141 L57.2681241,67.2576894 L55.3791663,56.54276 C55.3140241,56.1582877 55.4391326,55.7660764 55.7148702,55.4903388 C55.9906078,55.2146012 56.3828191,55.0894927 56.7672914,55.1546349 L56.7672914,55.1546349 L67.478609,57.037573 L53.865833,43.4223891 Z M18.3669107,43.424797 L4.7505229,57.0435927 L15.4654523,55.1546349 C15.8498863,55.0877092 16.2429136,55.2112566 16.5199124,55.4861025 C16.7969111,55.7609484 16.9235213,56.1529998 16.859597,56.5379443 L16.859597,56.5379443 L14.9706393,67.2528737 L29.0384988,53.1886259 L26.2574329,47.5181408 L19.8585734,48.9267326 C19.5037053,49.0048646 19.1325324,48.9185396 18.8485622,48.6918309 C18.564592,48.4651222 18.3982065,48.1222853 18.3958049,47.7589257 L18.3958049,47.7589257 L18.3669107,43.424797 Z M41.5870055,3.08007797 L36.8628051,6.7977973 C36.426166,7.14103125 35.8113934,7.14103125 35.3747543,6.7977973 L35.3747543,6.7977973 L30.6517579,3.08007797 L28.0031236,8.47366042 C27.7586085,8.97191429 27.20516,9.23844476 26.6631555,9.11896403 L26.6631555,9.11896403 L20.7940228,7.8283568 L20.7518854,13.8383487 C20.7483108,14.3941559 20.3647109,14.8752728 19.8236595,15.0025438 L19.8236595,15.0025438 L13.9737897,16.3750179 L16.5429649,21.805922 C16.7775171,22.3061371 16.6415086,22.901795 16.2130895,23.2506316 L16.2130895,23.2506316 L11.5406579,27.0393825 L16.2106817,30.8221137 C16.6426134,31.1719206 16.7789377,31.7719468 16.540557,32.2740469 L16.540557,32.2740469 L13.9701779,37.703747 L19.8212517,39.0774251 C20.3623031,39.2046961 20.745903,39.6858129 20.7494776,40.2416202 L20.7494776,40.2416202 L20.790411,46.2516121 L26.6595437,44.9598009 C27.2015482,44.8403202 27.7549968,45.1068507 27.9995119,45.6051045 L27.9995119,45.6051045 L30.6481461,50.9998909 L35.3723464,47.2821716 C35.8089856,46.9389376 36.4237581,46.9389376 36.8603973,47.2821716 L36.8603973,47.2821716 L41.5809859,50.9950752 L44.2296201,45.6014928 C44.4741352,45.1032389 45.0275837,44.8367084 45.5695882,44.9561891 L45.5695882,44.9561891 L51.4387209,46.2480003 L51.4808583,40.2380084 C51.4844329,39.6822012 51.8680328,39.2010843 52.4090842,39.0738133 L52.4090842,39.0738133 L58.2589541,37.7001353 L55.6897788,32.2692312 C55.4513981,31.7671311 55.5877225,31.1671049 56.0196542,30.817298 L56.0196542,30.817298 L60.6896779,27.0345668 L56.0196542,23.2506316 C55.5912351,22.901795 55.4552266,22.3061371 55.6897788,21.805922 L55.6897788,21.805922 L58.2589541,16.3750179 L52.4090842,15.0025438 C51.8680328,14.8752728 51.4844329,14.3941559 51.4808583,13.8383487 L51.4808583,13.8383487 L51.4399248,7.8283568 L45.5756078,9.12016795 C45.0336033,9.23964868 44.4801548,8.97311822 44.2356397,8.47486434 L44.2356397,8.47486434 L41.5870055,3.08007797 Z M37.0067793,11.8849458 L37.2597044,11.90493 C39.2572792,12.1146811 40.7066371,13.9040119 40.4970066,15.9015993 L40.4970066,15.9015993 L40.4970066,20.8974359 L46.4920105,20.8974359 C46.7442454,20.8674596 46.9991428,20.8674596 47.2513777,20.8974359 C49.2489524,21.107187 50.6983103,22.8965178 50.4886798,24.8941052 L50.4886798,24.8941052 L50.4886798,30.8891091 C50.4886798,34.5360699 48.9299788,38.8824477 41.4961739,38.8824477 L41.4961739,38.8824477 L22.5119947,38.8824477 L22.5119947,24.8941052 L28.9666156,24.8941052 L32.503668,19.5285767 L33.5028353,13.1938558 L33.5028353,13.0739558 C33.6573059,12.4043664 34.2447262,11.9237499 34.9316446,11.90493 L34.9316446,11.90493 L36.5003373,11.90493 C36.7525722,11.8749537 37.0074695,11.8749537 37.2597044,11.90493 Z M28.5069987,26.8924398 L24.5103294,26.8924398 L24.5103294,36.2694555 L28.5069987,36.2694555 L28.5069987,26.8924398 Z M36.6606827,14.5179222 L35.5920204,14.5179222 L35.4596198,15.4636411 L34.769245,20.5421512 L30.9863697,26.1502639 L30.9863697,36.2694555 L41.3892769,36.2694555 C45.909813,36.2694555 48.0093088,34.4631325 48.0093088,30.5951425 L48.0093088,30.5951425 L48.0093088,24.9208294 C48.0093088,23.5589943 47.4797062,23.0293918 46.1178711,23.0293918 L46.1178711,23.0293918 L38.5521204,23.0293918 L38.5521204,16.4093599 C38.5521204,15.0475248 38.0225179,14.5179222 36.6606827,14.5179222 L36.6606827,14.5179222 Z" id="Combined-Shape"></path>
            </g>
        </g>
    </g>
</svg>