<?xml version="1.0" encoding="UTF-8"?>
<svg width="71px" height="63px" viewBox="0 0 71 63" version="1.1" xmlns="http://www.w3.org/2000/svg" xmlns:xlink="http://www.w3.org/1999/xlink">
    <title>Combined Shape</title>
    <g id="Page-1" stroke="none" stroke-width="1" fill="none" fill-rule="evenodd">
        <g id="ChatOps_Welcome_1_S1" transform="translate(-831.000000, -469.000000)" fill="#000000" fill-rule="nonzero">
            <g id="cloud-access" transform="translate(831.000000, 469.000000)">
                <path d="M35.0982497,20.7865473 C35.7434063,20.7872329 36.3558969,21.0704447 36.7742917,21.5615387 L36.7742917,21.5615387 L39.6348312,24.9094287 C39.9582583,25.2884953 40.1463068,25.7644353 40.1693233,26.2621971 C40.4650329,27.1205778 40.2160447,28.0725769 39.5379421,28.6762642 C39.5206052,28.6940511 39.5029198,28.7115724 39.4848857,28.7288281 L39.4848857,28.7288281 L38.4929659,29.6794494 L39.130024,30.3383575 C39.5613649,30.7859569 39.7879933,31.3922559 39.7560045,32.0130433 C39.7240157,32.6338306 39.4362685,33.2136242 38.9612052,33.6145171 L38.9612052,33.6145171 L38.3996953,34.0858605 L38.7111338,34.3152329 C38.8138259,34.3908575 38.9098087,34.4751925 38.9980166,34.5673018 C39.0155065,34.5760274 39.0328692,34.585002 39.0502596,34.5942864 C39.8129602,35.0045128 40.2711659,35.8173507 40.2272743,36.682262 C40.1833827,37.5471732 39.6452448,38.3094497 38.8449339,38.6403581 C38.8206604,38.6502401 38.7963814,38.6595909 38.7718977,38.6685766 L38.7718977,38.6685766 L39.6444587,39.532069 C40.0686436,39.9528007 40.307461,40.5253681 40.3079592,41.1228192 L40.3079592,41.1228192 L40.3112348,43.1752189 C43.440989,45.05587 45.360073,48.4356377 45.3716277,52.0869499 C45.3871999,54.7556132 44.3404952,57.3208808 42.4622831,59.216753 C40.6394732,61.0664983 38.1493823,62.1055127 35.5524296,62.099978 L35.5524296,62.099978 L35.4140648,62.0989267 C29.8497116,61.9423389 25.427436,57.3733336 25.452388,51.806834 C25.452388,48.2603575 27.5062769,45.1538243 30.985538,43.3751388 L30.985538,43.3751388 L30.9852558,26.0122086 C30.9457736,25.5054477 31.0791815,25.0002627 31.3637161,24.5790672 L31.3637161,24.5790672 L33.2700213,21.7608057 C33.655259,21.1891384 34.2853082,20.8301111 34.9735017,20.790094 C35.0151618,20.7877295 35.0567445,20.7865473 35.0982497,20.7865473 Z M35.0980339,23.0197116 L33.1917287,25.8379731 C33.1960555,25.8935691 33.1987557,25.954167 33.1987557,26.0200102 L33.1987557,26.0200102 L33.1987557,44.0724462 C33.2007885,44.5191924 32.9391695,44.9251097 32.5314705,45.1077783 C31.0676705,45.7536838 27.6656295,47.6987756 27.6656295,51.806834 L27.6656295,51.806834 L27.6656295,51.820899 C27.646219,56.1689856 31.0981081,59.73912 35.4443858,59.8660336 L35.4443858,59.8660336 L35.5524185,59.8668025 C37.5618282,59.8722251 39.488786,59.0683097 40.8985398,57.6364049 C42.3589818,56.1601628 43.1720142,54.1634835 43.158235,52.0869499 L43.158235,52.0869499 L43.158235,52.0718225 C43.1470379,49.0209614 41.4335153,46.2316156 38.7172091,44.8425298 C38.3370253,44.6492516 38.0979816,44.258455 38.0990629,43.8319635 L38.0990629,43.8319635 L38.0947416,41.126399 L35.9571884,39.0110776 C35.7314528,38.7897155 35.6096074,38.4833752 35.6216369,38.1674433 C35.630326,37.8521325 35.769681,37.554619 36.006355,37.3460961 L36.006355,37.3460961 L37.4063645,36.1190606 L35.9642043,35.0569983 C35.6857213,34.848823 35.5172498,34.5251152 35.5065217,34.1775888 C35.4957935,33.8300624 35.6439775,33.4965794 35.9090896,33.2716233 L35.9090896,33.2716233 L37.545764,31.8977685 L36.1381853,30.4418309 C35.7015111,29.9875925 35.7148038,29.265637 36.1679033,28.8277811 L36.1679033,28.8277811 L37.9607368,27.1096492 L37.9585734,26.3676348 L35.0980339,23.0197116 Z M35.4119733,47.9906935 C37.856626,47.9906935 39.8384085,49.9724761 39.8384085,52.4171287 C39.8384085,54.8617814 37.856626,56.843564 35.4119733,56.843564 C32.9684582,56.8408196 30.9882824,54.8606438 30.985538,52.4171287 C30.985538,49.9724761 32.9673206,47.9906935 35.4119733,47.9906935 Z M35.4119733,50.2039111 C34.1896469,50.2039111 33.1987557,51.1948024 33.1987557,52.4171287 C33.1987557,53.6394551 34.1896469,54.6303464 35.4119733,54.6303464 C36.6342996,54.6303464 37.6251909,53.6394551 37.6251909,52.4171287 C37.6251909,51.1948024 36.6342996,50.2039111 35.4119733,50.2039111 Z M20.6227248,1.35459799 C25.6834011,-1.13969904 31.7948699,0.171338266 35.3871852,4.52188214 C37.6932022,2.07642395 40.9036041,0.687190021 44.2648438,0.680261987 C47.870785,0.669517174 51.2947773,2.26280608 53.6088435,5.02831245 C55.9229097,7.79381883 56.8873906,11.4451294 56.2408908,14.992659 C56.3064057,14.9917811 56.3719557,14.9913421 56.4375407,14.9913366 C61.5720309,14.9757133 66.3231942,17.7059631 68.8949599,22.1499765 C71.4667256,26.5939899 71.4667256,32.0737542 68.8949599,36.5177676 C66.3231942,40.9617809 61.5720309,43.6920308 56.4375407,43.6765514 L56.4375407,43.6765514 L44.3682564,43.6765514 C43.8118033,43.0490505 43.1934256,42.4794838 42.5225325,41.9763742 L42.5225325,41.9763742 L42.5216859,41.4432322 L56.4375407,41.4432322 C61.2102235,41.4634679 65.5505359,38.6811175 67.5247032,34.3358241 C69.4988705,29.9905308 68.7393786,24.8912213 65.5846101,21.3098324 C62.4298416,17.7284435 57.4670932,16.3316923 52.9074586,17.7418847 C53.7720145,16.2461823 54.2262822,14.548704 54.2243231,12.8211107 C54.1967189,8.1731905 50.9600952,4.16140442 46.4231238,3.15154578 C41.8861523,2.14168715 37.2534819,4.40189187 35.257048,8.59929296 C33.4747518,4.18452311 28.8192242,1.64645419 24.1428929,2.54015336 C19.4665616,3.43385253 16.0750467,7.5098012 16.0463191,12.2706779 C16.042818,14.1901839 16.6047478,16.0682074 17.661968,17.6703314 C13.1168302,16.4016295 8.24867616,17.8888102 5.18846484,21.4808832 C2.12825352,25.0729562 1.43345533,30.1155632 3.40820741,34.4013812 C5.38295949,38.6871992 9.6675266,41.4354923 14.3864059,41.4432377 L14.3864059,41.4432377 L28.7723204,41.4432377 L28.7723204,42.0803954 C28.051129,42.5448818 27.3775922,43.0794841 26.7615237,43.6765514 L26.7615237,43.6765514 L14.3864059,43.6765514 C6.49598117,43.7006947 0.0678743386,37.3468007 0.000533291644,29.456626 C-0.0668077553,21.5664513 6.25191215,15.1037656 14.1416019,14.9933672 C12.8793105,9.4944053 15.5620486,3.84889503 20.6227248,1.35459799 Z M45.1946322,14.5140276 C45.6261612,14.082497 46.3256034,14.0818291 46.7579559,14.5125346 C49.7672082,17.5216176 51.4578027,21.6029116 51.4578027,25.8585173 C51.4578027,30.114123 49.7672082,34.1954169 46.7579559,37.2045 C46.4784577,37.4841741 46.0709648,37.5934531 45.6890322,37.4911575 C45.3070995,37.3888618 45.0087773,37.0905396 44.9064816,36.708607 C44.804186,36.3266743 44.913465,35.9191814 45.1931392,35.6396832 C50.5950685,30.2376709 50.5950685,21.4793692 45.1931447,16.0773514 C44.7624376,15.6450004 44.7631031,14.9455582 45.1946322,14.5140276 Z M24.0659961,14.5125401 C24.4984438,14.0824023 25.1974208,14.0833382 25.628715,14.5146325 C26.0600093,14.9459267 26.0609452,15.6449037 25.6308074,16.0773514 C20.2288891,21.4793747 20.2288891,30.2376764 25.6308129,35.6396942 C26.0615185,36.0720468 26.0608505,36.7714889 25.6293199,37.203018 C25.1977893,37.634547 24.4983471,37.6352126 24.0659961,37.2045055 C21.0567439,34.1954225 19.3661494,30.1141285 19.3661494,25.8585228 C19.3661494,21.6029171 21.0567439,17.5216232 24.0659961,14.5125401 Z M35.4196526,14.7713432 C40.1842515,14.7746584 44.4118379,17.8273189 45.9138185,22.3489853 C47.4157992,26.8706517 45.8549378,31.8460848 42.0392819,34.699536 C41.9025109,34.3887971 41.7304654,34.0948141 41.5265347,33.8233785 C41.7854655,33.2910151 41.9349705,32.7121181 41.9662015,32.1209493 C41.9718286,32.0134865 41.9634847,31.9070418 41.9612217,31.8000881 C45.1662301,28.2759859 45.0083521,22.8476801 41.6039431,19.5158076 C38.1995341,16.1839351 32.7690872,16.1429846 29.3148175,19.4231363 C25.8605477,22.703288 25.6208235,28.1285955 28.7723204,31.7006316 L28.7723204,31.7006316 L28.7723204,34.6903124 C24.9606359,31.8315585 23.4066941,26.8539599 24.9149605,22.3343863 C26.4232268,17.8148126 30.6550538,14.7680334 35.4196526,14.7713432 Z" id="Combined-Shape"></path>
            </g>
        </g>
    </g>
</svg>