<?xml version="1.0" encoding="UTF-8"?>
<svg width="65px" height="61px" viewBox="0 0 65 61" version="1.1" xmlns="http://www.w3.org/2000/svg" xmlns:xlink="http://www.w3.org/1999/xlink">
    <title>Combined Shape</title>
    <g id="Page-1" stroke="none" stroke-width="1" fill="none" fill-rule="evenodd">
        <g id="ChatOps_Welcome_1_S1" transform="translate(-832.000000, -694.000000)" fill="#000000" fill-rule="nonzero">
            <g id="noun_process_2473979" transform="translate(832.000000, 694.000000)">
                <g id="eliminate-motion">
                    <path d="M56.8479161,42.5604966 C57.6605572,42.5604966 58.3377581,43.1699774 58.3377581,44.0503386 L58.3377581,44.0503386 L58.3377581,50.4160271 C58.3377581,53.4634312 55.8321147,55.9690745 52.7847107,55.9690745 L52.7847107,55.9690745 L44.1165391,55.9690745 L45.8095414,57.6620767 C46.3513021,58.2038375 46.3513021,59.1519187 45.8095414,59.6936795 C45.538661,59.9645598 45.1323405,60.1 44.79374,60.1 C44.4551396,60.1 44.048819,59.9645598 43.7779387,59.6936795 L43.7779387,59.6936795 L39.5792931,55.4950339 C39.0375323,54.9532731 39.0375323,54.0051919 39.5792931,53.4634312 L39.5792931,53.4634312 L43.7102186,49.2647856 C44.2519793,48.7230248 45.2000606,48.7230248 45.7418213,49.2647856 C46.283582,49.8065463 46.283582,50.7546275 45.7418213,51.2963883 L45.7418213,51.2963883 L44.048819,52.9893905 L52.7847107,52.9893905 C54.2068326,52.9893905 55.4257942,51.838149 55.4257942,50.348307 L55.4257942,50.348307 L55.4257942,43.9826185 C55.4257942,43.2376975 56.035275,42.5604966 56.8479161,42.5604966 Z M22.5815504,18.858465 C24.2745527,18.858465 25.6289545,20.0774266 25.8321147,21.7704289 L25.8321147,21.7704289 L26.1707152,25.0887133 C26.1707152,25.2241535 26.2384353,25.3595937 26.3738755,25.4273138 C27.1865165,25.7659142 27.9314375,26.1045147 28.6086384,26.5108352 C28.7440786,26.5785553 28.8795188,26.5785553 29.014959,26.5108352 L29.014959,26.5108352 L31.8592028,24.6823928 C33.2813247,23.8020316 35.1097671,24.072912 36.1932885,25.4273138 L36.1932885,25.4273138 L38.2926113,28.0006772 C39.3084127,29.355079 39.2406926,31.1835214 38.021731,32.4024831 L38.021731,32.4024831 L35.6515278,34.7726862 C35.5160876,34.9081264 35.4483676,35.0435666 35.5160876,35.1790068 C35.786968,35.9239278 35.9224082,36.7365688 36.0578484,37.5492099 C36.0578484,37.7523702 36.1932885,37.8200903 36.3287287,37.8878104 L36.3287287,37.8878104 L39.511573,38.9713318 C41.1368551,39.5130926 42.0849364,41.2060948 41.6786159,42.831377 L41.6786159,42.831377 L40.9336949,46.1496614 C40.5950944,47.7749436 38.9698123,48.858465 37.4122502,48.6553047 L37.4122502,48.6553047 L34.0262457,48.2489842 C33.8908055,48.2489842 33.7553653,48.3844244 33.6876452,48.4521445 C33.2813247,49.1293454 32.7395639,49.7388262 32.1978032,50.348307 C32.062363,50.4160271 31.994643,50.5514673 32.062363,50.6869074 L32.062363,50.6869074 L33.2136046,53.8697517 C33.7553653,55.4273138 33.0104443,57.1880361 31.5206023,57.9329571 L31.5206023,57.9329571 L28.4731983,59.4227991 C27.9991576,59.6259594 27.525117,59.7613995 27.0510764,59.7613995 C25.9675549,59.7613995 24.8840335,59.2196388 24.2745527,58.2038375 L24.2745527,58.2038375 L22.5138303,55.3595937 C22.3783901,55.2241535 22.2429499,55.1564334 22.1075098,55.1564334 C21.2948687,55.2241535 20.4822276,55.2241535 19.6695865,55.1564334 C19.4664262,55.1564334 19.3309861,55.2241535 19.263266,55.3595937 L19.263266,55.3595937 L17.5025436,58.2038375 C16.6221825,59.6259594 14.79374,60.1677201 13.303898,59.4227991 L13.303898,59.4227991 L10.256494,57.9329571 C8.69893189,57.1880361 8.02173099,55.4273138 8.56349171,53.8697517 L8.56349171,53.8697517 L9.71473324,50.6191874 C9.71473324,50.4837472 9.64701315,50.348307 9.57929306,50.2805869 C9.03753234,49.7388262 8.56349171,49.0616253 8.08945108,48.3844244 C8.02173099,48.3167043 7.88629081,48.2489842 7.68313053,48.2489842 L7.68313053,48.2489842 L4.4325662,48.6553047 C2.73956394,48.858465 1.24972196,47.7749436 0.843401415,46.1496614 L0.843401415,46.1496614 L0.098480422,42.831377 C-0.30784012,41.2060948 0.572521054,39.5130926 2.19780322,38.9713318 L2.19780322,38.9713318 L5.38064746,37.8878104 C5.51608765,37.8878104 5.65152783,37.7523702 5.65152783,37.61693 C5.78696801,36.7365688 5.99012828,35.9239278 6.19328855,35.1790068 C6.19328855,35.1112867 6.19328855,34.9758465 6.05784837,34.8404063 L6.05784837,34.8404063 L3.55181202,32.3341349 C2.4600683,31.1739044 2.3749173,29.3707067 3.41676485,28.0683973 L3.41676485,28.0683973 L5.51608765,25.4273138 C6.531889,24.072912 8.42805153,23.8020316 9.85017342,24.6823928 L9.85017342,24.6823928 L12.7621373,26.4431151 C12.8975775,26.5108352 13.0330177,26.5108352 13.1684578,26.4431151 C13.8456588,26.1045147 14.5905797,25.6981941 15.4032208,25.4273138 C15.4709409,25.3595937 15.6063811,25.2241535 15.6063811,25.0887133 L15.6063811,25.0887133 L15.9449816,21.7704289 C16.0804217,20.1451467 17.5025436,18.858465 19.1955459,18.858465 L19.1955459,18.858465 Z M22.6492705,21.838149 L19.263266,21.838149 C19.0601057,21.838149 18.8569454,21.9735892 18.8569454,22.1767494 L18.8569454,22.1767494 L18.518345,25.4950339 C18.3829048,26.7139955 17.5702637,27.7975169 16.4190222,28.2038375 C15.7418213,28.4747178 15.1323405,28.7455982 14.5905797,29.0841986 C13.5070583,29.6936795 12.2203766,29.6936795 11.2045752,29.0164786 L11.2045752,29.0164786 L8.36033144,27.1880361 C8.15717117,27.0525959 7.9540109,27.120316 7.81857072,27.2557562 L7.81857072,27.2557562 L5.71924792,29.8968397 C5.58380774,30.0322799 5.58380774,30.3031603 5.71924792,30.4386005 L5.71924792,30.4386005 L8.02173099,32.7410835 C8.83437207,33.5537246 9.17297252,34.8404063 8.83437207,35.9916479 C8.6312118,36.6011287 8.49577162,37.2783296 8.42805153,37.9555305 C8.29261135,39.1744921 7.41225017,40.1902935 6.26100864,40.596614 L6.26100864,40.596614 L3.07816439,41.6801354 C2.87500412,41.7478555 2.73956394,41.9510158 2.80728403,42.1541761 L2.80728403,42.1541761 L3.55220503,45.4724605 C3.61992512,45.6756208 3.82308539,45.8110609 4.02624566,45.8110609 L4.02624566,45.8110609 L7.27680999,45.4047404 C8.56349171,45.2693002 9.78245333,45.8110609 10.4596542,46.8268623 C10.7982547,47.368623 11.2045752,47.9103837 11.6786159,48.3844244 C12.558977,49.2647856 12.8298574,50.5514673 12.4235369,51.6349887 L12.4235369,51.6349887 L11.2722953,54.885553 C11.2045752,55.0887133 11.2722953,55.2918736 11.4754556,55.3595937 L11.4754556,55.3595937 L14.5228597,56.8494357 C14.7260199,56.9848758 14.9291802,56.9171558 15.0646204,56.7139955 L15.0646204,56.7139955 L16.8253427,53.8697517 C17.5025436,52.7862302 18.7215053,52.1767494 20.008187,52.3121896 C20.5499477,52.3799097 21.1594285,52.3799097 21.7689093,52.3121896 C23.055591,52.1767494 24.2745527,52.7862302 24.9517536,53.8697517 L24.9517536,53.8697517 L26.7124759,56.7139955 C26.8479161,56.8494357 27.0510764,56.9171558 27.2542366,56.8494357 L27.2542366,56.8494357 L30.3016407,55.3595937 C30.504801,55.2918736 30.5725211,55.0887133 30.504801,54.885553 L30.504801,54.885553 L29.3535594,51.7027088 C28.9472389,50.6191874 29.2181192,49.3325056 30.0307603,48.4521445 C30.4370809,47.9781038 30.9111215,47.4363431 31.249722,46.8945824 C31.8592028,45.9465011 32.8750041,45.4047404 33.9585256,45.4047404 L33.9585256,45.4047404 L34.297126,45.4047404 L37.6831305,45.8110609 C37.8862908,45.8110609 38.0894511,45.6756208 38.1571712,45.4724605 L38.1571712,45.4724605 L38.9020922,42.2218962 C38.9698123,42.0187359 38.8343721,41.8155756 38.6312118,41.7478555 L38.6312118,41.7478555 L35.4483676,40.6643341 C34.297126,40.2580135 33.4844849,39.2422122 33.2813247,38.0232506 C33.2136046,37.3460497 33.0781644,36.6688488 32.8750041,36.0593679 C32.4686836,34.9081264 32.807284,33.6891648 33.6876452,32.8088036 L33.6876452,32.8088036 L36.1932885,30.4386005 C36.3287287,30.3031603 36.3287287,30.0322799 36.1932885,29.8968397 L36.1932885,29.8968397 L34.0939657,27.2557562 C33.9585256,27.120316 33.7553653,27.0525959 33.552205,27.1880361 L33.552205,27.1880361 L30.7079612,29.0164786 C29.6244398,29.6259594 28.3377581,29.6936795 27.3219567,29.0841986 C26.780196,28.7455982 26.1707152,28.4747178 25.4935143,28.2038375 C24.3422727,27.7975169 23.5296317,26.7139955 23.3941915,25.4950339 L23.3941915,25.4950339 L23.055591,22.1767494 C23.055591,21.9735892 22.8524308,21.838149 22.6492705,21.838149 L22.6492705,21.838149 Z M20.8885481,31.3866817 C25.4935143,31.3866817 29.2858393,35.1790068 29.3535594,39.851693 C29.3535594,44.5243792 25.5612344,48.3167043 20.8885481,48.3167043 C16.2158619,48.3167043 12.4235369,44.5243792 12.4235369,39.851693 C12.4235369,35.1790068 16.2158619,31.3866817 20.8885481,31.3866817 Z M20.8885481,34.2986456 C17.8411441,34.2986456 15.3355007,36.8042889 15.3355007,39.851693 C15.3355007,42.8990971 17.8411441,45.4047404 20.8885481,45.4047404 C23.9359522,45.4047404 26.4415955,42.8990971 26.4415955,39.851693 C26.4415955,36.8042889 23.9359522,34.2986456 20.8885481,34.2986456 Z M45.1323405,0.370880361 C46.7576226,0.370880361 48.1797445,1.65756208 48.3829048,3.35056433 L48.3829048,3.35056433 L48.6537852,6.66884876 C48.7215053,6.80428894 48.7215053,6.93972912 48.9246655,7.00744921 C49.7373066,7.27832957 50.4822276,7.61693002 51.1594285,8.02325056 C51.2948687,8.15869074 51.498029,8.09097065 51.565749,8.02325056 L51.565749,8.02325056 L54.4099928,6.26252822 C55.8321147,5.38216704 57.6605572,5.72076749 58.7440786,7.00744921 L58.7440786,7.00744921 L60.8434014,9.64853273 C61.8592028,11.0029345 61.7914827,12.831377 60.5725211,14.0503386 L60.5725211,14.0503386 L58.2023179,16.4205418 C58.1345978,16.4205418 57.9991576,16.5559819 58.0668777,16.7591422 C58.3377581,17.5040632 58.4731983,18.3167043 58.6086384,19.1970655 C58.6763585,19.3325056 58.7440786,19.4002257 58.8795188,19.4679458 L58.8795188,19.4679458 L62.062363,20.5514673 C63.6876452,21.093228 64.5680064,22.7862302 64.297126,24.4792325 L64.297126,24.4792325 L63.552205,27.7297968 C63.2136046,29.355079 61.6560425,30.5063205 59.9630402,30.3031603 L59.9630402,30.3031603 L56.5093156,29.8968397 C56.4415955,29.9645598 56.2384353,30.1 56.2384353,30.1 C55.8321147,30.7772009 55.290354,31.3866817 54.7485933,31.9961625 C54.6131531,32.0638826 54.545433,32.1993228 54.6131531,32.334763 L54.6131531,32.334763 L55.7643946,35.5176072 C56.3738755,37.1428894 55.6289545,38.9036117 54.1391125,39.5808126 L54.1391125,39.5808126 L51.0917084,41.0706546 C50.6176678,41.2738149 50.0759071,41.4092551 49.6018664,41.4092551 C48.518345,41.4092551 47.4348235,40.8674944 46.8253427,39.851693 L46.8253427,39.851693 L45.0646204,37.0074492 C44.9291802,36.8042889 44.7260199,36.8042889 44.5905797,36.8042889 C43.8456588,36.872009 43.1007378,36.872009 42.2880967,36.8042889 C41.4754556,36.7365688 40.8659748,36.0593679 40.9336949,35.2467269 C41.001415,34.4340858 41.6786159,33.8923251 42.4912569,33.8923251 C43.1007378,33.9600451 43.7779387,33.9600451 44.3196994,33.8923251 C45.6063811,33.7568849 46.8253427,34.3663657 47.5025436,35.4498871 L47.5025436,35.4498871 L49.263266,38.2941309 C49.3309861,38.4972912 49.5341463,38.4972912 49.7373066,38.4295711 L49.7373066,38.4295711 L52.6492705,36.8042889 C52.8524308,36.7365688 52.9201509,36.5334086 52.8524308,36.3302483 L52.8524308,36.3302483 L51.7011892,33.1474041 C51.2948687,32.0638826 51.498029,30.7772009 52.3783901,29.8291196 C52.8524308,29.2873589 53.2587513,28.8133183 53.5973518,28.2715576 C54.2745527,27.2557562 55.4257942,26.7139955 56.6447558,26.8494357 L56.6447558,26.8494357 L60.0307603,27.2557562 C60.3016407,27.2557562 60.4370809,27.120316 60.504801,26.9171558 L60.504801,26.9171558 L61.249722,23.5988713 C61.317442,23.3957111 61.1820019,23.1925508 60.9788416,23.1248307 L60.9788416,23.1248307 L57.7959974,22.0413093 C56.6447558,21.6349887 55.7643946,20.5514673 55.6289545,19.4002257 C55.5612344,18.7907449 55.4257942,18.113544 55.2226339,17.5040632 C54.8163134,16.3528217 55.1549138,15.13386 56.035275,14.2534989 L56.035275,14.2534989 L58.4054782,11.8832957 C58.6086384,11.7478555 58.6086384,11.4769752 58.4731983,11.341535 L58.4731983,11.341535 L56.3738755,8.70045147 C56.2384353,8.56501129 56.035275,8.4972912 55.8321147,8.63273138 L55.8321147,8.63273138 L53.055591,10.3934537 C52.0397897,11.0706546 50.753108,11.0706546 49.6695865,10.4611738 C49.1278258,10.1902935 48.5860651,9.91941309 47.9088642,9.64853273 C46.7576226,9.24221219 45.9449816,8.22641084 45.8095414,6.93972912 L45.8095414,6.93972912 L45.4709409,3.6214447 C45.4709409,3.41828442 45.2677806,3.28284424 45.0646204,3.28284424 L45.0646204,3.28284424 L41.6786159,3.28284424 C41.4754556,3.28284424 41.2722953,3.41828442 41.2722953,3.6214447 L41.2722953,3.6214447 L40.9336949,6.93972912 C40.7982547,8.15869074 39.9856136,9.24221219 38.8343721,9.64853273 C38.2248913,9.851693 37.6154104,10.1225734 37.0736497,10.4611738 C35.9901283,11.0706546 34.6357265,11.0706546 33.6876452,10.3934537 L33.6876452,10.3934537 L30.8434014,8.63273138 C30.6402411,8.56501129 30.4370809,8.63273138 30.3016407,8.76817156 L30.3016407,8.76817156 L28.2023179,11.341535 C28.0668777,11.4769752 27.9991576,11.6801354 28.2023179,11.8832957 L28.2023179,11.8832957 L30.5725211,14.2534989 C31.4528822,15.13386 31.7237626,16.4205418 31.3851621,17.5717833 C31.1820019,18.2489842 31.0465617,18.858465 30.9788416,19.5356659 C30.8434014,20.348307 30.0984804,20.8900677 29.3535594,20.7546275 C28.6086384,20.6191874 28.0668777,19.9419865 28.2023179,18.9939052 C28.3377581,18.1812641 28.5409183,17.368623 28.7440786,16.623702 C28.7440786,16.5559819 28.6763585,16.4205418 28.6086384,16.2851016 L28.6086384,16.2851016 L26.2384353,13.9826185 C25.0871937,12.831377 24.9517536,10.9352144 25.9675549,9.58081264 L25.9675549,9.58081264 L28.0668777,6.93972912 C29.1503992,5.58532731 30.9788416,5.31444695 32.4009635,6.19480813 L32.4009635,6.19480813 L35.3129274,8.02325056 C35.4483676,8.09097065 35.5838077,8.09097065 35.6515278,8.02325056 C36.3964488,7.61693002 37.1413698,7.27832957 37.9540109,6.93972912 C38.0894511,6.87200903 38.1571712,6.66884876 38.1571712,6.60112867 L38.1571712,6.60112867 L38.4957716,3.28284424 C38.6312118,1.65756208 40.0533337,0.370880361 41.746336,0.370880361 L41.746336,0.370880361 Z M43.303898,12.8990971 C47.9765843,12.8990971 51.7689093,16.6914221 51.7689093,21.3641084 C51.7689093,25.9690745 48.1797445,29.6936795 43.6424985,29.8291196 L43.6424985,29.8291196 L43.5747784,29.8291196 C42.8298574,29.8291196 42.1526565,29.2196388 42.1526565,28.4069977 C42.1526565,27.5943567 42.7621373,26.9171558 43.5747784,26.9171558 C46.6221825,26.8494357 48.9246655,24.4115124 48.8569454,21.2963883 C48.8569454,18.2489842 46.3513021,15.7433409 43.303898,15.7433409 C40.7305346,15.7433409 38.5634917,17.4363431 37.8862908,19.8742664 C37.6831305,20.6191874 36.8704895,21.093228 36.1255685,20.8900677 C35.3806475,20.6869074 34.9066068,19.8742664 35.1097671,19.1293454 C36.1255685,15.4724605 39.511573,12.8990971 43.303898,12.8990971 Z M17.2993834,0.506320542 C17.8411441,-0.0354401806 18.7892253,-0.0354401806 19.3309861,0.506320542 L19.3309861,0.506320542 L23.5296317,4.70496614 C24.0713924,5.24672686 24.0713924,6.19480813 23.5296317,6.73656885 L23.5296317,6.73656885 L19.3309861,10.9352144 C19.0601057,11.2060948 18.6537852,11.341535 18.3151847,11.341535 C17.9765843,11.341535 17.5702637,11.2060948 17.2993834,10.9352144 C16.7576226,10.3934537 16.7576226,9.44537246 17.2993834,8.90361174 L17.2993834,8.90361174 L18.9923856,7.21060948 L11.4754556,7.21060948 C10.0533337,7.21060948 8.83437207,8.36185102 8.83437207,9.851693 L8.83437207,9.851693 L8.83437207,19.8065463 C8.83437207,20.5514673 8.22489126,21.2286682 7.41225017,21.2286682 C6.59960909,21.2286682 5.92240819,20.6191874 5.92240819,19.7388262 L5.92240819,19.7388262 L5.92240819,9.78397291 C5.92240819,6.73656885 8.42805153,4.23092551 11.4754556,4.23092551 L11.4754556,4.23092551 L18.9923856,4.23092551 L17.2993834,2.53792325 C16.7576226,1.99616253 16.7576226,1.04808126 17.2993834,0.506320542 Z" id="Combined-Shape"></path>
                </g>
            </g>
        </g>
    </g>
</svg>